<svg width="0" height="0" class="hidden">
  <symbol xmlns="http://www.w3.org/2000/svg" version="1.1" xmlns:xlink="http://www.w3.org/1999/xlink" viewBox="0 0 512 512" id="add-to-cart" style="shape-rendering:geometricPrecision; text-rendering:geometricPrecision; image-rendering:optimizeQuality; fill-rule:evenodd; clip-rule:evenodd" >
    <g>
      <path  d="M 301.5,-0.5 C 310.833,-0.5 320.167,-0.5 329.5,-0.5C 373.7,7.85505 402.867,33.5217 417,76.5C 427.956,125.317 413.456,164.484 373.5,194C 343.09,212.137 311.09,215.47 277.5,204C 240.175,188.332 218.009,160.498 211,120.5C 206.779,66.7507 228.945,28.584 277.5,6C 285.459,3.17941 293.459,1.01274 301.5,-0.5 Z M 311.5,61.5 C 322.776,59.708 329.276,64.3747 331,75.5C 331.499,80.4889 331.666,85.4889 331.5,90.5C 339.022,89.9887 346.355,90.822 353.5,93C 360.491,97.9333 362.325,104.433 359,112.5C 356.113,117.039 351.947,119.539 346.5,120C 341.511,120.499 336.511,120.666 331.5,120.5C 332.011,128.022 331.178,135.355 329,142.5C 324.067,149.491 317.567,151.325 309.5,148C 304.961,145.113 302.461,140.947 302,135.5C 301.501,130.511 301.334,125.511 301.5,120.5C 293.978,121.011 286.645,120.178 279.5,118C 272.028,112.227 270.528,105.06 275,96.5C 278.112,93.1943 281.945,91.361 286.5,91C 291.489,90.5007 296.489,90.3341 301.5,90.5C 300.751,82.1703 301.918,74.1703 305,66.5C 307.326,64.9343 309.492,63.2676 311.5,61.5 Z"></path>
    </g>
    <g>
      <path  d="M 511.5,159.5 C 511.5,163.5 511.5,167.5 511.5,171.5C 490.892,240.246 470.725,309.246 451,378.5C 449.628,382.862 447.128,386.362 443.5,389C 348.914,390.662 254.248,390.995 159.5,390C 155.333,388.5 152.5,385.667 151,381.5C 127.136,294.741 102.969,208.075 78.5,121.5C 55.1738,120.667 31.8405,120.167 8.5,120C 4.31481,118.312 1.31481,115.479 -0.5,111.5C -0.5,107.5 -0.5,103.5 -0.5,99.5C 1.31481,95.5212 4.31481,92.6878 8.5,91C 37.8333,90.3333 67.1667,90.3333 96.5,91C 100.667,92.5 103.5,95.3333 105,99.5C 109.606,116.429 114.44,133.262 119.5,150C 142.833,150.333 166.167,150.667 189.5,151C 209.532,201.023 246.199,230.357 299.5,239C 356.418,243.124 400.251,221.291 431,173.5C 434.918,166.165 438.418,158.665 441.5,151C 461.833,150.333 482.167,150.333 502.5,151C 506.685,152.688 509.685,155.521 511.5,159.5 Z M 195.5,270.5 C 265.501,270.333 335.501,270.5 405.5,271C 419.528,274.563 423.028,282.729 416,295.5C 413.044,298.227 409.544,299.727 405.5,300C 335.5,300.667 265.5,300.667 195.5,300C 182.214,296.927 178.381,289.094 184,276.5C 187.308,273.265 191.141,271.265 195.5,270.5 Z M 225.5,330.5 C 275.501,330.333 325.501,330.5 375.5,331C 386.29,333.067 390.79,339.567 389,350.5C 386.187,355.996 381.687,359.162 375.5,360C 325.5,360.667 275.5,360.667 225.5,360C 212.214,356.927 208.381,349.094 214,336.5C 217.308,333.265 221.141,331.265 225.5,330.5 Z"></path>
    </g>
    <g>
      <path  d="M 220.5,511.5 C 213.833,511.5 207.167,511.5 200.5,511.5C 174.134,502.248 162.634,483.581 166,455.5C 175.481,427.169 194.981,416.002 224.5,422C 248.49,431.8 258.656,449.633 255,475.5C 250.064,493.934 238.564,505.934 220.5,511.5 Z"></path>
    </g>
    <g>
      <path  d="M 400.5,511.5 C 393.833,511.5 387.167,511.5 380.5,511.5C 354.134,502.248 342.634,483.581 346,455.5C 355.481,427.169 374.981,416.002 404.5,422C 428.49,431.8 438.656,449.633 435,475.5C 430.064,493.934 418.564,505.934 400.5,511.5 Z"></path>
    </g>
  </symbol>
  <symbol xmlns="http://www.w3.org/2000/svg" version="1.1" xmlns:xlink="http://www.w3.org/1999/xlink" viewBox="0 0 512 512" id="bell" style="shape-rendering:geometricPrecision; text-rendering:geometricPrecision; image-rendering:optimizeQuality; fill-rule:evenodd; clip-rule:evenodd" >
    <g>
      <path  d="M 248.5,-0.5 C 253.167,-0.5 257.833,-0.5 262.5,-0.5C 269.997,2.83509 274.831,8.50176 277,16.5C 277.5,25.4938 277.666,34.4938 277.5,43.5C 336.832,54.2558 376.999,87.9225 398,144.5C 401.875,156.54 404.208,168.874 405,181.5C 405.333,209.167 405.667,236.833 406,264.5C 409.224,295.269 420.891,322.269 441,345.5C 448.387,352.887 455.721,360.221 463,367.5C 473.591,387.543 470.424,405.043 453.5,420C 448.828,422.837 443.828,424.837 438.5,426C 316.5,426.667 194.5,426.667 72.5,426C 48.5819,419.009 38.7486,403.176 43,378.5C 44.3926,374.714 46.0593,371.048 48,367.5C 58.6771,357.489 68.6771,346.822 78,335.5C 93.2915,314.301 102.291,290.635 105,264.5C 105.333,236.833 105.667,209.167 106,181.5C 112.512,120.003 144.012,76.8359 200.5,52C 211.232,48.0671 222.232,45.2338 233.5,43.5C 233.334,34.4938 233.5,25.4938 234,16.5C 236.169,8.50176 241.003,2.83509 248.5,-0.5 Z"></path>
    </g>
    <g>
      <path  d="M 268.5,511.5 C 259.833,511.5 251.167,511.5 242.5,511.5C 208.208,503.545 186.208,482.545 176.5,448.5C 229.167,447.167 281.833,447.167 334.5,448.5C 324.792,482.545 302.792,503.545 268.5,511.5 Z"></path>
    </g>
  </symbol>
  <symbol xmlns="http://www.w3.org/2000/svg" version="1.1" xmlns:xlink="http://www.w3.org/1999/xlink" viewBox="0 0 512 512" id="blog" style="shape-rendering:geometricPrecision; text-rendering:geometricPrecision; image-rendering:optimizeQuality; fill-rule:evenodd; clip-rule:evenodd" >
    <g>
      <path  d="M 34.5,-0.5 C 181.833,-0.5 329.167,-0.5 476.5,-0.5C 494.5,4.83333 506.167,16.5 511.5,34.5C 511.5,62.8333 511.5,91.1667 511.5,119.5C 340.833,119.5 170.167,119.5 -0.5,119.5C -0.5,91.1667 -0.5,62.8333 -0.5,34.5C 4.83333,16.5 16.5,4.83333 34.5,-0.5 Z M 75.5,44.5 C 82.175,44.3337 88.8417,44.5004 95.5,45C 109.528,48.5627 113.028,56.7294 106,69.5C 99.8548,73.6325 93.0215,75.2992 85.5,74.5C 78.262,75.2207 71.5953,73.7207 65.5,70C 57.8983,57.0525 61.2316,48.5525 75.5,44.5 Z M 155.5,44.5 C 162.175,44.3337 168.842,44.5004 175.5,45C 189.528,48.5627 193.028,56.7294 186,69.5C 179.855,73.6325 173.021,75.2992 165.5,74.5C 158.262,75.2207 151.595,73.7207 145.5,70C 137.898,57.0525 141.232,48.5525 155.5,44.5 Z M 235.5,44.5 C 242.175,44.3337 248.842,44.5004 255.5,45C 269.528,48.5627 273.028,56.7294 266,69.5C 259.855,73.6325 253.021,75.2992 245.5,74.5C 238.262,75.2207 231.595,73.7207 225.5,70C 217.898,57.0525 221.232,48.5525 235.5,44.5 Z"></path>
    </g>
    <g>
      <path  d="M -0.5,149.5 C 170.167,149.5 340.833,149.5 511.5,149.5C 511.5,258.5 511.5,367.5 511.5,476.5C 506.167,494.5 494.5,506.167 476.5,511.5C 329.167,511.5 181.833,511.5 34.5,511.5C 16.4913,506.158 4.82461,494.491 -0.5,476.5C -0.5,367.5 -0.5,258.5 -0.5,149.5 Z M 60.5,270.5 C 70.5056,270.334 80.5056,270.5 90.5,271C 112.138,274.095 122.638,286.595 122,308.5C 121.048,313.902 118.882,318.735 115.5,323C 133.069,338.171 135.902,355.671 124,375.5C 119.135,381.016 113.302,385.183 106.5,388C 92.8742,389.166 79.2075,389.999 65.5,390.5C 59.4917,390.89 54.9917,388.557 52,383.5C 51.3333,348.167 51.3333,312.833 52,277.5C 53.8659,273.784 56.6992,271.45 60.5,270.5 Z M 265.5,270.5 C 302.401,273.735 322.735,293.735 326.5,330.5C 322.881,366.619 303.047,386.619 267,390.5C 230.911,386.578 211.078,366.578 207.5,330.5C 210.956,295.046 230.289,275.046 265.5,270.5 Z M 405.5,270.5 C 417.25,271.021 428.25,274.188 438.5,280C 445.043,284.378 446.043,289.711 441.5,296C 439.487,297.257 437.321,298.091 435,298.5C 428.902,295.869 422.735,293.369 416.5,291C 392.532,287.557 376.365,297.057 368,319.5C 363.289,344.92 373.123,361.754 397.5,370C 421.306,374.017 435.306,364.183 439.5,340.5C 431.762,340.856 424.095,340.356 416.5,339C 408.5,333.333 408.5,327.667 416.5,322C 427.775,320.424 439.108,320.091 450.5,321C 454.499,321.668 457.332,323.835 459,327.5C 460.674,349.306 453.174,367.139 436.5,381C 409.042,395.595 384.208,391.762 362,369.5C 344.267,346.109 342.934,321.775 358,296.5C 370.085,280.876 385.918,272.21 405.5,270.5 Z M 158.5,271.5 C 164.731,270.361 168.898,272.695 171,278.5C 171.5,309.165 171.667,339.832 171.5,370.5C 180.173,370.334 188.84,370.5 197.5,371C 205.313,373.111 207.813,377.945 205,385.5C 203.786,387.049 202.286,388.215 200.5,389C 186.486,390.621 172.486,390.621 158.5,389C 156,387.833 154.167,386 153,383.5C 152.333,348.167 152.333,312.833 153,277.5C 154.36,274.977 156.193,272.977 158.5,271.5 Z"></path>
    </g>
    <g>
      <path  d="M 70.5,290.5 C 78.84,290.334 87.1733,290.5 95.5,291C 103.743,296.093 105.576,302.926 101,311.5C 99.4571,313.378 97.6238,314.878 95.5,316C 87.1691,316.611 78.8357,317.111 70.5,317.5C 70.5,308.5 70.5,299.5 70.5,290.5 Z"></path>
    </g>
    <g>
      <path  d="M 257.5,290.5 C 281.411,287.529 297.578,297.195 306,319.5C 310.722,344.895 300.889,361.728 276.5,370C 250.386,373.54 233.886,362.707 227,337.5C 225.134,313.875 235.3,298.208 257.5,290.5 Z"></path>
    </g>
    <g>
      <path  d="M 70.5,336.5 C 81.5775,336.069 92.5775,336.569 103.5,338C 113.085,345.139 114.918,353.972 109,364.5C 107.442,366.359 105.609,367.859 103.5,369C 92.5775,370.431 81.5775,370.931 70.5,370.5C 70.5,359.167 70.5,347.833 70.5,336.5 Z"></path>
    </g>
  </symbol>
  <symbol xmlns="http://www.w3.org/2000/svg" version="1.1" xmlns:xlink="http://www.w3.org/1999/xlink" viewBox="0 0 512 512" id="chat" style="shape-rendering:geometricPrecision; text-rendering:geometricPrecision; image-rendering:optimizeQuality; fill-rule:evenodd; clip-rule:evenodd" >
    <g>
      <path  d="M 511.5,404.5 C 511.5,409.833 511.5,415.167 511.5,420.5C 503.247,441.795 487.913,449.628 465.5,444C 437.317,434.161 409.15,424.328 381,414.5C 352.734,428.025 322.901,435.525 291.5,437C 248.955,489.586 194.288,509.586 127.5,497C 116.713,494.293 106.213,490.793 96,486.5C 76.7724,492.798 57.6057,499.298 38.5,506C 19.4344,511.014 6.43443,504.514 -0.5,486.5C -0.5,481.5 -0.5,476.5 -0.5,471.5C 6.96622,451.605 13.9662,431.439 20.5,411C -4.99333,349.125 2.84,291.958 44,239.5C 51.4003,231.43 59.4003,224.096 68,217.5C 72.1133,136.5 108.28,74.667 176.5,32C 232.151,1.37222 290.484,-4.96112 351.5,13C 423.323,38.1564 470.823,86.9897 494,159.5C 508.5,213.006 504,264.839 480.5,315C 490.967,344.905 501.3,374.738 511.5,404.5 Z M 274.5,34.5 C 350.417,33.5268 407.917,65.1935 447,129.5C 473.058,177.469 477.725,227.469 461,279.5C 456.211,290.741 451.711,302.075 447.5,313.5C 457.797,346.559 468.797,379.392 480.5,412C 479.591,414.319 477.925,414.986 475.5,414C 443.529,402.565 411.362,391.732 379,381.5C 366.011,387.076 352.844,392.243 339.5,397C 261.877,416.677 196.377,396.844 143,337.5C 98.9142,280.309 89.2476,217.642 114,149.5C 140.453,89.7242 185.619,52.5575 249.5,38C 257.973,36.7653 266.306,35.5987 274.5,34.5 Z M 71.5,256.5 C 89.6386,341.226 139.639,398.06 221.5,427C 231.353,429.963 241.353,432.297 251.5,434C 217.821,464.923 178.488,475.589 133.5,466C 122.833,462.832 112.5,458.832 102.5,454C 99.1667,453.333 95.8333,453.333 92.5,454C 72.4805,461.286 52.4805,467.786 32.5,473.5C 40.3126,452.396 47.3126,431.063 53.5,409.5C 53.458,406.741 52.958,404.075 52,401.5C 27.7297,348.898 34.2297,300.565 71.5,256.5 Z"></path>
    </g>
    <g>
      <path  d="M 190.5,138.5 C 253.834,138.333 317.168,138.5 380.5,139C 391.28,143.729 394.447,151.563 390,162.5C 387.738,165.431 384.905,167.597 381.5,169C 317.5,169.667 253.5,169.667 189.5,169C 179.211,163.343 176.711,155.177 182,144.5C 184.637,142.109 187.47,140.109 190.5,138.5 Z"></path>
    </g>
    <g>
      <path  d="M 189.5,201.5 C 253.501,201.333 317.501,201.5 381.5,202C 392.165,207.651 394.665,215.817 389,226.5C 386.9,229.467 384.066,231.3 380.5,232C 317.167,232.667 253.833,232.667 190.5,232C 182.995,229.827 179.329,224.827 179.5,217C 179.452,209.583 182.786,204.417 189.5,201.5 Z"></path>
    </g>
    <g>
      <path  d="M 193.5,263.5 C 231.835,263.333 270.168,263.5 308.5,264C 317.167,265.502 321.834,270.669 322.5,279.5C 321.91,287.915 317.577,293.082 309.5,295C 270.167,295.667 230.833,295.667 191.5,295C 180.317,290.828 176.817,282.995 181,271.5C 184.091,266.886 188.257,264.22 193.5,263.5 Z"></path>
    </g>
  </symbol>
  <symbol xmlns="http://www.w3.org/2000/svg" version="1.1" xmlns:xlink="http://www.w3.org/1999/xlink" viewBox="0 0 512 512" id="feedback" style="shape-rendering:geometricPrecision; text-rendering:geometricPrecision; image-rendering:optimizeQuality; fill-rule:evenodd; clip-rule:evenodd" >
    <g>
      <path  d="M 383.5,-0.5 C 388.833,-0.5 394.167,-0.5 399.5,-0.5C 410.483,2.98437 417.65,10.3177 421,21.5C 422.393,40.7999 422.893,60.1332 422.5,79.5C 441.888,79.0502 461.221,79.5502 480.5,81C 496.62,86.948 506.953,98.1147 511.5,114.5C 511.5,154.5 511.5,194.5 511.5,234.5C 506.348,252.484 494.682,263.984 476.5,269C 429.167,269.667 381.833,269.667 334.5,269C 325.571,266.787 317.738,262.62 311,256.5C 311.324,203.912 311.658,151.245 312,98.5C 321.473,95.3425 330.973,92.1758 340.5,89C 350.646,84.1876 357.146,76.3543 360,65.5C 360.907,49.7963 361.907,34.1297 363,18.5C 366.841,8.82173 373.674,2.4884 383.5,-0.5 Z"></path>
    </g>
    <g>
      <path  d="M 230.5,79.5 C 244.504,79.3334 258.504,79.5001 272.5,80C 276.667,81.5 279.5,84.3333 281,88.5C 281.667,145.833 281.667,203.167 281,260.5C 279.5,264.667 276.667,267.5 272.5,269C 258.5,269.667 244.5,269.667 230.5,269C 226.333,267.5 223.5,264.667 222,260.5C 221.333,203.167 221.333,145.833 222,88.5C 223.688,84.3148 226.521,81.3148 230.5,79.5 Z"></path>
    </g>
    <g>
      <path  d="M 20.5,511.5 C 16.5,511.5 12.5,511.5 8.5,511.5C 7.01307,510.196 5.3464,509.03 3.5,508C 2.30342,505.985 0.970083,504.151 -0.5,502.5C -0.5,396.833 -0.5,291.167 -0.5,185.5C 1.31481,181.521 4.31481,178.688 8.5,177C 69.4991,176.5 130.499,176.333 191.5,176.5C 191.077,205.527 191.577,234.527 193,263.5C 197.833,281.667 209.333,293.167 227.5,298C 240.469,299.466 253.469,299.799 266.5,299C 279.452,298.522 290.452,293.689 299.5,284.5C 309.594,291.214 320.594,295.714 332.5,298C 358.143,299.377 383.81,299.877 409.5,299.5C 409.667,353.834 409.5,408.168 409,462.5C 407.64,465.735 405.473,468.235 402.5,470C 294.914,471.329 187.247,471.996 79.5,472C 59.6564,485.03 39.9898,498.196 20.5,511.5 Z M 74.5,251.5 C 104.542,251.04 134.542,251.54 164.5,253C 174.457,259.163 176.124,267.163 169.5,277C 166.624,279.437 163.29,280.77 159.5,281C 129.46,281.96 99.4599,281.627 69.5,280C 61.6953,276.219 58.862,270.053 61,261.5C 63.9825,256.005 68.4825,252.671 74.5,251.5 Z M 71.5,319.5 C 160.167,319.333 248.834,319.5 337.5,320C 348.294,324.43 351.128,331.93 346,342.5C 343.9,345.467 341.066,347.3 337.5,348C 248.833,348.667 160.167,348.667 71.5,348C 60.7056,343.57 57.8723,336.07 63,325.5C 65.3218,322.605 68.1552,320.605 71.5,319.5 Z M 74.5,386.5 C 161.167,386.333 247.834,386.5 334.5,387C 348.528,390.563 352.028,398.729 345,411.5C 342.044,414.227 338.544,415.727 334.5,416C 247.833,416.667 161.167,416.667 74.5,416C 61.214,412.927 57.3806,405.094 63,392.5C 66.3077,389.265 70.1411,387.265 74.5,386.5 Z"></path>
    </g>
  </symbol>
  <symbol xmlns="http://www.w3.org/2000/svg" version="1.1" xmlns:xlink="http://www.w3.org/1999/xlink" viewBox="0 0 512 512" id="gas-booking" style="shape-rendering:geometricPrecision; text-rendering:geometricPrecision; image-rendering:optimizeQuality; fill-rule:evenodd; clip-rule:evenodd" >
    <g>
      <path  d="M 284.5,-0.5 C 288.167,-0.5 291.833,-0.5 295.5,-0.5C 300.234,1.73934 303.401,5.40601 305,10.5C 304.856,51.0641 316.523,87.7308 340,120.5C 350.374,131.872 360.374,143.539 370,155.5C 384.358,178.976 389.025,204.309 384,231.5C 375.139,277.19 349.639,309.857 307.5,329.5C 307.167,329 306.833,328.5 306.5,328C 308.935,318.737 308.435,309.57 305,300.5C 294.631,277.42 281.964,255.753 267,235.5C 260.803,229.896 253.969,229.063 246.5,233C 233.088,250.428 221.255,268.928 211,288.5C 206.618,297.36 203.785,306.693 202.5,316.5C 203.126,320.345 203.793,324.178 204.5,328C 204.167,328.5 203.833,329 203.5,329.5C 144.675,299.53 119.175,251.53 127,185.5C 130.802,163.078 138.636,142.245 150.5,123C 154.789,120.123 159.456,119.123 164.5,120C 176.419,125.129 188.419,129.963 200.5,134.5C 197.35,78.96 219.35,36.7934 266.5,8C 272.47,4.84555 278.47,2.01221 284.5,-0.5 Z"></path>
    </g>
    <g>
      <path  d="M 254.5,270.5 C 255.496,270.414 256.329,270.748 257,271.5C 266.76,285.519 274.26,300.686 279.5,317C 276.372,334.403 266.039,341.736 248.5,339C 234.055,332.942 229.222,322.442 234,307.5C 239.831,294.495 246.664,282.162 254.5,270.5 Z"></path>
    </g>
    <g>
      <path  d="M 159.5,351.5 C 168.822,349.251 175.655,352.251 180,360.5C 181.827,374.866 178.994,388.2 171.5,400.5C 189.488,401.5 207.488,401.833 225.5,401.5C 225.5,389.833 225.5,378.167 225.5,366.5C 235.502,367.666 245.502,368.666 255.5,369.5C 265.498,368.666 275.498,367.666 285.5,366.5C 285.5,378.167 285.5,389.833 285.5,401.5C 303.512,401.833 321.512,401.5 339.5,400.5C 331.928,388.209 329.095,374.875 331,360.5C 335.348,352.085 342.181,349.252 351.5,352C 354.735,353.36 357.235,355.527 359,358.5C 360.073,385.905 374.239,400.405 401.5,402C 404.735,403.36 407.235,405.527 409,408.5C 410.466,422.736 410.966,437.069 410.5,451.5C 307.167,451.5 203.833,451.5 100.5,451.5C 100.034,437.069 100.534,422.736 102,408.5C 103.765,405.527 106.265,403.36 109.5,402C 136.761,400.405 150.927,385.905 152,358.5C 154.015,355.588 156.515,353.255 159.5,351.5 Z"></path>
    </g>
    <g>
      <path  d="M 501.5,511.5 C 337.5,511.5 173.5,511.5 9.5,511.5C 0.546488,506.158 -1.95351,498.492 2,488.5C 3.76476,485.527 6.26476,483.36 9.5,482C 173.5,481.333 337.5,481.333 501.5,482C 510.475,487.152 512.975,494.652 509,504.5C 506.985,507.412 504.485,509.745 501.5,511.5 Z"></path>
    </g>
  </symbol>
  <symbol xmlns="http://www.w3.org/2000/svg" version="1.1" xmlns:xlink="http://www.w3.org/1999/xlink" viewBox="0 0 512 512" id="home" style="shape-rendering:geometricPrecision; text-rendering:geometricPrecision; image-rendering:optimizeQuality; fill-rule:evenodd; clip-rule:evenodd" >
    <g>
      <path  d="M 245.5,-0.5 C 252.167,-0.5 258.833,-0.5 265.5,-0.5C 272.955,1.89414 279.955,5.39414 286.5,10C 358,81.5 429.5,153 501,224.5C 505.606,231.045 509.106,238.045 511.5,245.5C 511.5,252.167 511.5,258.833 511.5,265.5C 503.272,291.689 485.272,304.356 457.5,303.5C 457.961,358.19 457.461,412.857 456,467.5C 449.872,491.129 435.038,505.796 411.5,511.5C 379.167,511.5 346.833,511.5 314.5,511.5C 310.215,509.378 307.048,506.045 305,501.5C 304.974,457.129 304.307,412.796 303,368.5C 300.565,361.066 295.732,355.899 288.5,353C 277.555,351.88 266.555,351.38 255.5,351.5C 244.445,351.38 233.445,351.88 222.5,353C 214.118,356.924 208.951,363.424 207,372.5C 206.667,415.5 206.333,458.5 206,501.5C 203.978,506.02 200.811,509.353 196.5,511.5C 163.833,511.5 131.167,511.5 98.5,511.5C 75.9561,505.457 61.4561,491.124 55,468.5C 53.5386,413.523 53.0386,358.523 53.5,303.5C 25.7047,304.326 7.70472,291.659 -0.5,265.5C -0.5,258.833 -0.5,252.167 -0.5,245.5C 1.55846,237.854 5.05846,230.854 10,224.5C 81.5,153 153,81.5 224.5,10C 231.045,5.39414 238.045,1.89414 245.5,-0.5 Z"></path>
    </g>
  </symbol>
  <symbol xmlns="http://www.w3.org/2000/svg" version="1.1" xmlns:xlink="http://www.w3.org/1999/xlink" viewBox="0 0 512 512" id="jobs" style="shape-rendering:geometricPrecision; text-rendering:geometricPrecision; image-rendering:optimizeQuality; fill-rule:evenodd; clip-rule:evenodd" >
    <g>
      <path  d="M 253.5,58.5 C 288.597,60.5453 307.93,79.0453 311.5,114C 308.206,148.128 289.539,166.628 255.5,169.5C 227.855,168.024 210.022,154.024 202,127.5C 197.075,97.8844 207.909,76.3844 234.5,63C 240.785,60.6768 247.118,59.1768 253.5,58.5 Z"></path>
    </g>
    <g>
      <path  d="M 158.5,72.5 C 173.383,71.7382 186.383,76.2382 197.5,86C 187.614,109.452 189.948,131.619 204.5,152.5C 202.517,154.984 200.35,157.317 198,159.5C 180.653,149.797 162.986,149.131 145,157.5C 141.642,137.105 131.475,121.105 114.5,109.5C 121.9,88.427 136.566,76.0937 158.5,72.5 Z"></path>
    </g>
    <g>
      <path  d="M 344.5,72.5 C 370.383,71.2615 388.383,82.4281 398.5,106C 384.39,114.444 374.223,126.277 368,141.5C 366.525,146.063 365.692,150.73 365.5,155.5C 357.619,153.531 349.619,152.198 341.5,151.5C 332.464,151.926 323.797,153.926 315.5,157.5C 312.698,156.272 310.531,154.272 309,151.5C 308.333,150.167 308.333,148.833 309,147.5C 315.359,136.904 318.859,125.404 319.5,113C 318.371,104.361 316.871,95.8612 315,87.5C 323.208,79.1466 333.041,74.1466 344.5,72.5 Z"></path>
    </g>
    <g>
      <path  d="M 416.5,110.5 C 449.221,108.745 469.054,123.745 476,155.5C 476.838,186.663 462.005,205.496 431.5,212C 422.171,212.945 413.171,211.612 404.5,208C 401.095,188.343 391.262,172.843 375,161.5C 376.146,134.187 389.979,117.187 416.5,110.5 Z"></path>
    </g>
    <g>
      <path  d="M 82.5,111.5 C 111.238,112.416 129.071,126.749 136,154.5C 136.821,157.554 136.655,160.554 135.5,163.5C 119.4,174.635 109.733,189.968 106.5,209.5C 75.5023,219.785 52.669,210.452 38,181.5C 30.5346,156.517 37.0346,136.017 57.5,120C 65.4593,115.625 73.7927,112.792 82.5,111.5 Z"></path>
    </g>
    <g>
      <path  d="M 160.5,161.5 C 191.858,159.38 211.692,173.38 220,203.5C 220.667,207.5 220.667,211.5 220,215.5C 207.79,226.253 199.956,239.586 196.5,255.5C 169.314,269.205 146.147,264.205 127,240.5C 112.724,213.314 117.224,189.814 140.5,170C 146.751,165.952 153.418,163.119 160.5,161.5 Z"></path>
    </g>
    <g>
      <path  d="M 332.5,161.5 C 363.06,159.272 382.894,172.606 392,201.5C 395.576,223.113 388.742,240.613 371.5,254C 355.674,264.062 339.007,265.728 321.5,259C 318.103,239.362 308.269,223.862 292,212.5C 291.708,193.915 299.208,179.415 314.5,169C 320.328,165.788 326.328,163.288 332.5,161.5 Z"></path>
    </g>
    <g>
      <path  d="M 223.5,172.5 C 246.855,172.218 270.189,172.552 293.5,173.5C 291.641,178.223 289.474,182.89 287,187.5C 284.879,192.982 283.546,198.649 283,204.5C 282.612,205.428 281.945,206.095 281,206.5C 263.538,200.389 246.538,201.389 230,209.5C 229.043,196.662 224.876,184.995 217.5,174.5C 219.631,173.831 221.631,173.165 223.5,172.5 Z"></path>
    </g>
    <g>
      <path  d="M 249.5,213.5 C 279.433,211.196 298.933,224.196 308,252.5C 312.508,278.981 303.008,298.481 279.5,311C 253.117,320.203 231.617,313.703 215,291.5C 201.545,264.437 206.379,241.27 229.5,222C 235.877,218.27 242.544,215.437 249.5,213.5 Z"></path>
    </g>
    <g>
      <path  d="M 511.5,268.5 C 511.5,290.167 511.5,311.833 511.5,333.5C 488.539,343.359 464.539,348.359 439.5,348.5C 443.036,304.871 424.703,274.871 384.5,258.5C 396.649,246.399 402.982,231.732 403.5,214.5C 419.503,214.333 435.503,214.5 451.5,215C 483.762,219.268 503.762,237.101 511.5,268.5 Z"></path>
    </g>
    <g>
      <path  d="M -0.5,334.5 C -0.5,313.167 -0.5,291.833 -0.5,270.5C 6.54678,240.622 25.2134,222.789 55.5,217C 72.8301,216.5 90.1635,216.333 107.5,216.5C 108.235,233.467 114.568,247.967 126.5,260C 86.3955,276.676 68.0622,306.843 71.5,350.5C 46.3398,350.136 22.3398,344.802 -0.5,334.5 Z"></path>
    </g>
    <g>
      <path  d="M 141.5,265.5 C 159.833,265.5 178.167,265.5 196.5,265.5C 197.367,282.563 203.7,297.229 215.5,309.5C 175.299,325.867 156.966,355.867 160.5,399.5C 134.331,397.766 108.831,392.766 84,384.5C 83.3333,363.167 83.3333,341.833 84,320.5C 90.6733,288.991 109.84,270.658 141.5,265.5 Z"></path>
    </g>
    <g>
      <path  d="M 320.5,265.5 C 337.17,265.333 353.837,265.5 370.5,266C 398.43,270.265 416.93,285.765 426,312.5C 426.794,315.471 427.461,318.471 428,321.5C 428.667,342.167 428.667,362.833 428,383.5C 417.755,388.915 406.922,392.749 395.5,395C 382.634,397.707 369.634,399.207 356.5,399.5C 359.848,363.95 346.848,336.45 317.5,317C 312.278,314.222 306.945,311.722 301.5,309.5C 313.294,297.239 319.628,282.573 320.5,265.5 Z"></path>
    </g>
    <g>
      <path  d="M 233.5,317.5 C 253.197,317.121 272.864,317.621 292.5,319C 320.775,325.608 337.942,343.108 344,371.5C 345.703,393.049 345.87,414.549 344.5,436C 329.247,443.147 313.247,447.814 296.5,450C 254.002,454.667 212.502,450.167 172,436.5C 171.333,417.167 171.333,397.833 172,378.5C 177.142,342.524 197.642,322.191 233.5,317.5 Z"></path>
    </g>
  </symbol>
  <symbol xmlns="http://www.w3.org/2000/svg" version="1.1" xmlns:xlink="http://www.w3.org/1999/xlink" viewBox="0 0 512 512" id="lightbulb" style="shape-rendering:geometricPrecision; text-rendering:geometricPrecision; image-rendering:optimizeQuality; fill-rule:evenodd; clip-rule:evenodd" >
    <g>
      <path d="M 251.5,-0.5 C 254.167,-0.5 256.833,-0.5 259.5,-0.5C 260.458,0.961599 261.624,2.29493 263,3.5C 263.667,24.5 263.667,45.5 263,66.5C 259.158,71.2553 254.658,72.0887 249.5,69C 248.283,67.3523 247.45,65.519 247,63.5C 246.333,44.5 246.333,25.5 247,6.5C 247.545,3.47322 249.045,1.13988 251.5,-0.5 Z"></path>
    </g>
    <g>
      <path  d="M 127.5,35.5 C 131.95,35.1416 135.45,36.8083 138,40.5C 147.333,55.1667 156.667,69.8333 166,84.5C 169.347,95.1517 165.514,99.6517 154.5,98C 143.628,82.4242 133.128,66.5909 123,50.5C 119.924,43.8506 121.424,38.8506 127.5,35.5 Z"></path>
    </g>
    <g>
      <path d="M 381.5,38.5 C 391.543,37.7008 395.043,42.0342 392,51.5C 381.223,67.942 370.057,84.1086 358.5,100C 347.927,101.088 344.427,96.5884 348,86.5C 358.673,70.0211 369.839,54.0211 381.5,38.5 Z"></path>
    </g>
    <g>
      <path d="M 242.5,109.5 C 305.412,107.318 350.578,134.318 378,190.5C 398.63,250.613 385.63,302.28 339,345.5C 332.105,356.513 327.772,368.513 326,381.5C 324.984,390.807 324.317,400.14 324,409.5C 323.167,412.333 321.333,414.167 318.5,415C 275.774,415.984 233.107,415.65 190.5,414C 188.513,412.681 187.346,410.848 187,408.5C 188.441,386.363 183.775,365.696 173,346.5C 165.333,338.167 157.667,329.833 150,321.5C 115.195,269.012 114.862,216.345 149,163.5C 172.91,132.961 204.077,114.961 242.5,109.5 Z M 241.5,126.5 C 288.354,123.015 325.187,140.348 352,178.5C 376.323,219.643 376.656,260.976 353,302.5C 345.829,313.18 337.496,322.847 328,331.5C 314.385,351.265 307.552,373.265 307.5,397.5C 272.833,397.5 238.167,397.5 203.5,397.5C 203.657,374.758 197.824,353.758 186,334.5C 178.333,326.167 170.667,317.833 163,309.5C 134.146,265.838 133.146,221.504 160,176.5C 180.171,148.495 207.338,131.828 241.5,126.5 Z"></path>
    </g>
    <g>
      <path d="M 46.5,121.5 C 49.941,121.301 53.2744,121.801 56.5,123C 71.5806,131.735 86.9139,140.068 102.5,148C 106.671,151.854 107.504,156.354 105,161.5C 102.274,163.964 99.1072,164.797 95.5,164C 78.8333,155 62.1667,146 45.5,137C 40.0997,131.49 40.433,126.324 46.5,121.5 Z"></path>
    </g>
    <g>
      <path d="M 457.5,121.5 C 464.58,120.193 468.58,123.026 469.5,130C 469.205,132.923 467.871,135.257 465.5,137C 448.833,146 432.167,155 415.5,164C 406.837,165 403.337,161.167 405,152.5C 405.785,150.714 406.951,149.214 408.5,148C 424.895,139.138 441.228,130.305 457.5,121.5 Z"></path>
    </g>
    <g>
      <path d="M 251.5,143.5 C 302.284,143.966 336.45,167.966 354,215.5C 357.413,227.038 358.413,238.705 357,250.5C 352.649,255.254 347.982,255.588 343,251.5C 337.827,194.327 306.661,163.161 249.5,158C 245.604,152.525 246.271,147.692 251.5,143.5 Z"></path>
    </g>
    <g>
      <path d="M 197.5,423.5 C 235.835,423.333 274.168,423.5 312.5,424C 326.572,429.317 331.072,439.151 326,453.5C 321.991,459.926 316.157,463.426 308.5,464C 272.833,464.667 237.167,464.667 201.5,464C 185.876,460.594 180.043,451.094 184,435.5C 186.85,429.514 191.35,425.514 197.5,423.5 Z M 203.5,439.5 C 238.168,439.333 272.835,439.5 307.5,440C 310.473,441.224 311.14,443.224 309.5,446C 273.5,446.667 237.5,446.667 201.5,446C 198.64,442.746 199.307,440.579 203.5,439.5 Z"></path>
    </g>
    <g>
      <path d="M 298.5,511.5 C 269.833,511.5 241.167,511.5 212.5,511.5C 198.335,504.504 194.835,493.837 202,479.5C 204.708,475.896 208.208,473.396 212.5,472C 241.167,471.333 269.833,471.333 298.5,472C 312.528,478.935 316.028,489.435 309,503.5C 306.145,507.211 302.645,509.877 298.5,511.5 Z M 217.5,487.5 C 242.502,487.333 267.502,487.5 292.5,488C 295.993,489.478 296.326,491.478 293.5,494C 268.167,494.667 242.833,494.667 217.5,494C 215.048,491.921 215.048,489.754 217.5,487.5 Z"></path>
    </g>
  </symbol>
  <symbol xmlns="http://www.w3.org/2000/svg" version="1.1" xmlns:xlink="http://www.w3.org/1999/xlink" viewBox="0 0 512 512" id="list" style="shape-rendering:geometricPrecision; text-rendering:geometricPrecision; image-rendering:optimizeQuality; fill-rule:evenodd; clip-rule:evenodd" >
    <g>
      <path  d="M 86.5,-0.5 C 175.5,-0.5 264.5,-0.5 353.5,-0.5C 383.799,28.9663 413.633,58.9663 443,89.5C 443.667,223.833 443.667,358.167 443,492.5C 439.983,502.016 433.816,508.349 424.5,511.5C 311.833,511.5 199.167,511.5 86.5,511.5C 77.1841,508.349 71.0174,502.016 68,492.5C 67.3333,334.5 67.3333,176.5 68,18.5C 71.0174,8.98387 77.1841,2.65054 86.5,-0.5 Z M 90.5,17.5 C 173.833,17.5 257.167,17.5 340.5,17.5C 340.333,39.1692 340.5,60.8359 341,82.5C 344.376,93.2108 351.543,99.7108 362.5,102C 383.497,102.5 404.497,102.667 425.5,102.5C 425.996,231.914 425.496,361.247 424,490.5C 423.097,491.701 421.931,492.535 420.5,493C 310.5,493.667 200.5,493.667 90.5,493C 88.3333,492.167 86.8333,490.667 86,488.5C 85.3333,333.167 85.3333,177.833 86,22.5C 87.025,20.313 88.525,18.6464 90.5,17.5 Z M 358.5,30.5 C 376.632,48.1316 394.632,65.9649 412.5,84C 395.767,84.956 379.1,84.6226 362.5,83C 361.333,81.8333 360.167,80.6667 359,79.5C 358.5,63.1701 358.333,46.8367 358.5,30.5 Z M 149.5,162.5 C 155.677,161.509 159.677,164.009 161.5,170C 160.667,174.833 157.833,177.667 153,178.5C 144.493,174.791 143.327,169.457 149.5,162.5 Z M 150.5,247.5 C 158.696,247.529 161.863,251.529 160,259.5C 154.837,265.062 150.171,264.729 146,258.5C 144.776,253.626 146.276,249.959 150.5,247.5 Z M 152.5,332.5 C 157.601,333.101 160.601,335.934 161.5,341C 157.917,349.462 152.751,350.628 146,344.5C 144.581,338.447 146.747,334.447 152.5,332.5 Z M 149.5,418.5 C 155.677,417.509 159.677,420.009 161.5,426C 160.667,430.833 157.833,433.667 153,434.5C 144.493,430.791 143.327,425.457 149.5,418.5 Z"></path>
    </g>
    <g>
      <path  d="M 146.5,144.5 C 165.739,142.741 176.739,151.408 179.5,170.5C 177.832,186.168 169.166,194.834 153.5,196.5C 130.867,192.582 123.033,179.582 130,157.5C 133.939,151.048 139.439,146.714 146.5,144.5 Z M 149.5,162.5 C 143.327,169.457 144.493,174.791 153,178.5C 157.833,177.667 160.667,174.833 161.5,170C 159.677,164.009 155.677,161.509 149.5,162.5 Z"></path>
    </g>
    <g>
      <path  d="M 212.5,161.5 C 269.5,161.5 326.5,161.5 383.5,161.5C 383.5,167.5 383.5,173.5 383.5,179.5C 326.5,179.5 269.5,179.5 212.5,179.5C 212.5,173.5 212.5,167.5 212.5,161.5 Z"></path>
    </g>
    <g>
      <path  d="M 147.5,229.5 C 166.273,228.278 176.939,236.945 179.5,255.5C 177.744,271.422 168.911,280.089 153,281.5C 133.831,278.862 125.498,267.862 128,248.5C 131.112,238.553 137.612,232.219 147.5,229.5 Z M 150.5,247.5 C 146.276,249.959 144.776,253.626 146,258.5C 150.171,264.729 154.837,265.062 160,259.5C 161.863,251.529 158.696,247.529 150.5,247.5 Z"></path>
    </g>
    <g>
      <path  d="M 212.5,246.5 C 269.5,246.5 326.5,246.5 383.5,246.5C 383.5,252.5 383.5,258.5 383.5,264.5C 326.5,264.5 269.5,264.5 212.5,264.5C 212.5,258.5 212.5,252.5 212.5,246.5 Z"></path>
    </g>
    <g>
      <path  d="M 150.5,314.5 C 167.742,314.743 177.408,323.409 179.5,340.5C 176.759,359.745 165.759,368.245 146.5,366C 127.928,358.272 122.762,345.105 131,326.5C 135.895,319.807 142.395,315.807 150.5,314.5 Z M 152.5,332.5 C 146.747,334.447 144.581,338.447 146,344.5C 152.751,350.628 157.917,349.462 161.5,341C 160.601,335.934 157.601,333.101 152.5,332.5 Z"></path>
    </g>
    <g>
      <path  d="M 212.5,331.5 C 269.5,331.5 326.5,331.5 383.5,331.5C 383.5,337.5 383.5,343.5 383.5,349.5C 326.5,349.5 269.5,349.5 212.5,349.5C 212.5,343.5 212.5,337.5 212.5,331.5 Z"></path>
    </g>
    <g>
      <path  d="M 146.5,400.5 C 165.739,398.741 176.739,407.408 179.5,426.5C 177.832,442.168 169.166,450.834 153.5,452.5C 130.867,448.582 123.033,435.582 130,413.5C 133.939,407.048 139.439,402.714 146.5,400.5 Z M 149.5,418.5 C 143.327,425.457 144.493,430.791 153,434.5C 157.833,433.667 160.667,430.833 161.5,426C 159.677,420.009 155.677,417.509 149.5,418.5 Z"></path>
    </g>
    <g>
      <path  d="M 212.5,417.5 C 269.5,417.5 326.5,417.5 383.5,417.5C 383.5,423.5 383.5,429.5 383.5,435.5C 326.5,435.5 269.5,435.5 212.5,435.5C 212.5,429.5 212.5,423.5 212.5,417.5 Z"></path>
    </g>
  </symbol>
   <symbol xmlns="http://www.w3.org/2000/svg" version="1.1" xmlns:xlink="http://www.w3.org/1999/xlink" viewBox="0 0 512 512" id="locator" style="shape-rendering:geometricPrecision; text-rendering:geometricPrecision; image-rendering:optimizeQuality; fill-rule:evenodd; clip-rule:evenodd" >
    <g>
      <path d="M 238.5,-0.5 C 249.833,-0.5 261.167,-0.5 272.5,-0.5C 344.72,11.5495 389.554,53.2162 407,124.5C 412.158,152.063 409.158,178.73 398,204.5C 384.282,237.937 367.949,269.937 349,300.5C 320.3,347.243 289.133,392.243 255.5,435.5C 211.865,379.592 172.698,320.592 138,258.5C 124.265,233.292 113.265,206.958 105,179.5C 95.1605,110.691 119.327,57.5239 177.5,20C 196.649,9.22844 216.982,2.39511 238.5,-0.5 Z M 248.5,102.5 C 282.556,102.387 301.889,119.221 306.5,153C 303.989,179.843 289.656,196.51 263.5,203C 233.806,205.075 214.639,191.909 206,163.5C 202.604,140.126 210.771,121.959 230.5,109C 236.299,105.918 242.299,103.752 248.5,102.5 Z"></path>
    </g>
    <g>
      <path d="M 511.5,371.5 C 511.5,379.833 511.5,388.167 511.5,396.5C 506.101,418.764 494.435,437.264 476.5,452C 449.206,472.448 418.873,486.781 385.5,495C 351.864,503.662 317.864,509.162 283.5,511.5C 261.833,511.5 240.167,511.5 218.5,511.5C 174.564,508.811 131.897,499.644 90.5,484C 62.3892,473.047 38.2225,456.547 18,434.5C 9.10218,422.708 2.93552,409.708 -0.5,395.5C -0.5,387.5 -0.5,379.5 -0.5,371.5C 5.11912,349.342 16.7858,330.842 34.5,316C 52.5072,301.652 72.1739,289.819 93.5,280.5C 102.106,296.21 111.106,311.71 120.5,327C 101.251,335.27 83.2506,345.603 66.5,358C 46.928,374.353 46.5946,391.019 65.5,408C 84.3225,422.914 105.323,433.914 128.5,441C 196.195,461.057 264.861,465.057 334.5,453C 367.405,447.695 398.405,437.029 427.5,421C 470.445,395.446 470.112,370.446 426.5,346C 414.828,339.662 402.828,334.162 390.5,329.5C 400.036,315.264 408.37,300.264 415.5,284.5C 416.167,284.167 416.833,283.833 417.5,283.5C 445.198,293.423 469.365,308.756 490,329.5C 500.641,341.784 507.808,355.784 511.5,371.5 Z"></path>
    </g>
  </symbol>
    <symbol version="1.0" xmlns="http://www.w3.org/2000/svg" preserveAspectRatio="xMidYMid meet" viewBox="0 0 512.000000 512.000000" id="location" style="shape-rendering:geometricPrecision; text-rendering:geometricPrecision; image-rendering:optimizeQuality; fill-rule:evenodd; clip-rule:evenodd" >
    <g transform="translate(0.000000,512.000000) scale(0.100000,-0.100000)" fill="#ffffff" stroke="none">
      <path d="M2394 5110 c-613 -65 -1142 -489 -1343 -1078 -51 -150 -72 -271 -78
-452 -6 -187 11 -317 69 -522 111 -400 372 -932 730 -1491 48 -75 88 -141 88
-145 0 -5 -51 -14 -112 -21 -379 -43 -739 -136 -973 -251 -240 -118 -355 -256
-355 -425 0 -169 116 -308 355 -425 815 -399 2755 -399 3570 0 239 117 355
256 355 425 0 169 -115 307 -355 425 -234 115 -594 208 -972 251 -62 7 -113
16 -113 21 0 4 40 70 88 145 358 559 619 1091 730 1491 58 205 75 335 69 522
-10 313 -90 565 -262 826 -324 490 -908 765 -1491 704z m376 -330 c277 -44
567 -208 750 -423 216 -254 319 -546 307 -867 -15 -361 -212 -856 -605 -1515
-176 -295 -638 -975 -662 -975 -12 0 -287 389 -432 610 -236 359 -390 627
-541 940 -300 619 -362 988 -231 1380 129 386 436 686 829 809 53 16 131 35
173 40 42 6 91 13 107 15 44 6 230 -3 305 -14z m-605 -3792 c292 -403 306
-418 395 -418 89 0 103 15 395 418 54 73 96 122 106 122 40 0 309 -31 426 -50
393 -61 730 -173 847 -280 25 -24 46 -48 46 -55 0 -25 -95 -97 -185 -141 -106
-51 -234 -94 -400 -134 -890 -214 -2284 -149 -2870 134 -90 44 -185 116 -185
141 0 27 95 99 193 145 207 99 560 182 957 225 202 22 173 33 275 -107z"></path>
      <path d="M2406 4253 c-277 -59 -498 -274 -567 -552 -29 -117 -23 -291 14 -404
61 -189 201 -349 384 -441 190 -95 456 -95 646 0 183 92 323 252 384 441 37
113 43 287 14 404 -45 180 -159 343 -311 444 -166 110 -372 150 -564 108z
m264 -321 c265 -70 391 -380 253 -619 -38 -65 -111 -133 -180 -165 -236 -112
-505 7 -588 260 -23 71 -17 196 14 274 60 154 226 267 391 267 25 0 74 -8 110
-17z"></path>
    </g>
  </symbol>
  <symbol version="1.0" xmlns="http://www.w3.org/2000/svg" preserveAspectRatio="xMidYMid meet" viewBox="0 0 200.000000 200.000000" id="logo" style="shape-rendering:geometricPrecision; text-rendering:geometricPrecision; image-rendering:optimizeQuality; fill-rule:evenodd; clip-rule:evenodd" >
    <g transform="translate(0.000000,200.000000) scale(0.100000,-0.100000)"  stroke="none">
      <path d="M1003 1988 c-13 -6 -23 -15 -23 -20 0 -4 -6 -8 -14 -8 -20 0 -130
-36 -157 -52 -47 -26 -136 -97 -167 -133 -65 -73 -112 -207 -112 -315 0 -62 2
-71 26 -89 35 -27 96 -27 267 0 101 16 176 21 319 20 189 0 214 2 370 38 275
61 348 125 172 151 -38 5 -111 10 -162 10 l-93 0 -20 48 c-33 78 -42 95 -73
142 -55 84 -148 155 -232 176 -16 4 -35 16 -42 26 -15 20 -27 22 -59 6z m-288
-314 c24 -37 15 -104 -19 -149 -60 -78 -126 -16 -96 91 13 46 49 84 80 84 10
0 25 -12 35 -26z"></path>
      <path d="M637 1634 c-19 -25 -25 -72 -13 -93 13 -21 45 -12 61 19 18 35 19 72
3 88 -18 18 -31 14 -51 -14z"></path>
      <path d="M1880 1484 c0 -11 4 -35 10 -54 9 -32 7 -37 -23 -67 -31 -31 -34 -32
-71 -21 -41 13 -56 37 -56 89 0 37 -17 38 -31 2 -16 -43 -6 -126 19 -158 25
-32 69 -58 83 -49 15 9 39 -16 39 -39 0 -11 -9 -31 -20 -43 -20 -21 -21 -24
-6 -117 9 -52 23 -121 31 -153 8 -32 15 -71 15 -87 0 -16 7 -44 16 -63 14 -28
22 -34 48 -34 21 1 37 8 49 26 17 22 17 31 6 97 l-12 72 -46 0 c-44 0 -46 1
-49 30 -2 17 -6 37 -9 45 -4 8 -8 35 -9 59 -2 25 -8 57 -14 72 -15 36 1 67 37
71 26 3 28 6 25 45 -1 27 5 53 17 75 31 54 35 92 13 140 -10 24 -29 52 -41 62
-21 19 -21 19 -21 0z m78 -738 c4 -21 -14 -37 -35 -29 -14 5 -18 35 -6 47 12
12 38 1 41 -18z"></path>
      <path d="M631 1284 c-25 -7 -54 -22 -65 -33 -12 -10 -36 -26 -53 -35 -37 -19
-45 -57 -18 -86 9 -9 22 -47 29 -83 16 -73 38 -108 94 -146 30 -21 49 -26 103
-26 56 0 73 5 114 30 60 37 79 63 108 145 22 62 24 65 58 68 36 3 36 3 58 -60
48 -132 109 -183 221 -183 72 0 129 25 164 72 21 29 76 173 83 219 4 27 0 33
-52 68 -134 89 -261 88 -366 -3 -47 -41 -52 -42 -80 -31 -23 10 -36 10 -55 1
-14 -6 -26 -11 -27 -11 -2 0 -23 18 -47 40 -72 65 -171 85 -269 54z m156 -29
c50 -21 72 -42 94 -90 36 -77 18 -169 -41 -219 -102 -85 -246 -40 -287 90 -15
50 -15 56 2 101 22 60 49 91 100 114 49 23 84 24 132 4z m577 -9 c84 -43 118
-151 77 -241 -22 -48 -44 -69 -94 -90 -134 -56 -272 69 -237 214 27 113 152
170 254 117z"></path>
      <path d="M742 1133 c-13 -5 -42 -55 -42 -73 0 -6 11 -22 25 -35 48 -49 145
-18 145 45 0 50 -72 86 -128 63z m90 -15 c8 -7 18 -20 21 -30 8 -22 -15 -51
-34 -43 -20 7 -52 62 -44 75 9 14 38 13 57 -2z"></path>
      <path d="M1182 1134 c-16 -11 -22 -25 -22 -54 0 -47 27 -70 80 -70 68 0 105
75 60 120 -11 11 -25 20 -31 20 -7 0 0 -10 15 -21 31 -24 32 -62 3 -67 -29 -6
-59 28 -55 60 5 33 -14 37 -50 12z"></path>
      <path d="M330 1050 c-36 -10 -119 -32 -184 -49 -66 -17 -122 -33 -124 -36 -2
-2 1 -35 8 -74 8 -51 16 -71 27 -71 11 0 13 8 9 30 -19 97 -22 88 26 100 24 5
75 19 113 29 39 10 92 24 118 31 28 8 52 9 56 4 5 -5 23 -74 40 -154 17 -80
40 -182 51 -227 11 -45 20 -86 20 -91 0 -5 -15 -12 -32 -15 -18 -4 -82 -20
-143 -37 -178 -49 -162 -50 -171 6 -10 70 -17 85 -33 75 -11 -7 -11 -21 4 -82
10 -41 21 -78 25 -82 7 -8 70 4 151 29 32 10 46 20 45 32 0 9 7 18 17 20 11 2
17 -3 17 -14 0 -13 6 -15 28 -10 61 14 121 32 128 38 3 4 -1 40 -9 80 -9 40
-18 91 -21 113 -10 62 -89 375 -96 374 -3 -1 -34 -10 -70 -19z"></path>
      <path d="M220 736 c0 -8 4 -17 9 -20 5 -4 7 3 4 14 -6 23 -13 26 -13 6z"></path>
      <path d="M78 693 c7 -3 16 -2 19 1 4 3 -2 6 -13 5 -11 0 -14 -3 -6 -6z"></path>
      <path d="M88 633 c7 -3 16 -2 19 1 4 3 -2 6 -13 5 -11 0 -14 -3 -6 -6z"></path>
      <path d="M1257 330 c-21 -4 -44 -13 -51 -21 -7 -8 -21 -52 -30 -98 -21 -100
-13 -128 42 -158 76 -42 334 -38 435 7 42 19 47 24 47 54 0 19 -6 38 -12 44
-7 6 -52 22 -100 35 -106 31 -181 72 -246 134 -15 14 -27 15 -85 3z"></path>
      <path d="M715 295 c-63 -56 -206 -125 -260 -125 -36 0 -75 -37 -75 -71 0 -38
45 -61 167 -84 80 -15 104 -16 184 -6 109 14 151 30 175 66 17 26 17 31 -1
122 -18 92 -19 95 -54 109 -69 30 -92 28 -136 -11z"></path>
    </g>
  </symbol>
  <symbol xmlns="http://www.w3.org/2000/svg" version="1.1" xmlns:xlink="http://www.w3.org/1999/xlink" viewBox="0 0 512 512" id="megaphone" style="shape-rendering:geometricPrecision; text-rendering:geometricPrecision; image-rendering:optimizeQuality; fill-rule:evenodd; clip-rule:evenodd" >
    <g>
      <path  d="M 398.5,13.5 C 407.491,11.6413 412.491,15.1413 413.5,24C 410.415,37.9242 406.915,51.7575 403,65.5C 399.208,72.5956 393.708,74.2623 386.5,70.5C 383.954,68.2417 382.621,65.4083 382.5,62C 385.798,46.9751 389.798,32.1418 394.5,17.5C 396.188,16.4787 397.521,15.1454 398.5,13.5 Z"></path>
    </g>
    <g>
      <path  d="M -0.5,337.5 C -0.5,329.5 -0.5,321.5 -0.5,313.5C 3.29002,296.766 11.6234,282.6 24.5,271C 55.5049,252.162 86.8382,233.829 118.5,216C 163.621,158.924 208.621,101.757 253.5,44.5C 269.843,31.7085 285.343,32.7085 300,47.5C 312.833,69.6667 325.667,91.8333 338.5,114C 351.379,113.635 364.212,112.801 377,111.5C 378.734,112.249 380.567,112.749 382.5,113C 385.719,116.552 388.552,120.385 391,124.5C 395.601,133.425 400.601,142.092 406,150.5C 407.923,154.862 407.923,159.195 406,163.5C 398.758,173.741 391.924,184.241 385.5,195C 396.984,215.157 408.484,235.323 420,255.5C 425.235,273.858 419.401,287.358 402.5,296C 336.216,309.157 269.883,321.99 203.5,334.5C 206.522,342.21 210.356,349.543 215,356.5C 217.459,361.913 216.626,366.747 212.5,371C 203.47,375.843 194.803,381.177 186.5,387C 196.984,405.49 207.484,423.99 218,442.5C 225.263,467.129 217.429,484.963 194.5,496C 176.019,501.616 160.519,497.116 148,482.5C 130.5,452.333 113,422.167 95.5,392C 62.8765,402.013 35.3765,394.18 13,368.5C 6.44025,358.962 1.94025,348.628 -0.5,337.5 Z M 272.5,56.5 C 278.347,55.8399 282.513,58.1733 285,63.5C 322.333,128.167 359.667,192.833 397,257.5C 404.182,268.456 401.349,275.123 388.5,277.5C 387.558,277.392 386.725,277.059 386,276.5C 345.5,206.167 305,135.833 264.5,65.5C 266.504,61.8336 269.171,58.8336 272.5,56.5 Z M 249.5,83.5 C 288.312,149.11 326.645,215.11 364.5,281.5C 306.949,293.51 249.282,304.677 191.5,315C 173.907,285.147 156.574,255.147 139.5,225C 175.986,177.683 212.652,130.516 249.5,83.5 Z M 359.5,133.5 C 363.514,133.334 367.514,133.501 371.5,134C 376.212,141.255 380.546,148.755 384.5,156.5C 381.162,162.512 377.328,168.179 373,173.5C 365.5,160.667 358,147.833 350.5,135C 353.695,134.819 356.695,134.319 359.5,133.5 Z M 121.5,238.5 C 138.392,266.606 155.059,294.939 171.5,323.5C 144.33,339.586 116.997,355.419 89.5,371C 57.5427,380.684 35.0427,370.184 22,339.5C 16.7809,315.473 24.2809,296.639 44.5,283C 70.2295,268.14 95.8962,253.306 121.5,238.5 Z M 180.5,342.5 C 181.496,342.414 182.329,342.748 183,343.5C 185.707,348.416 188.541,353.249 191.5,358C 186.332,361.419 180.998,364.585 175.5,367.5C 172.248,362.666 169.248,357.666 166.5,352.5C 170.906,348.754 175.573,345.42 180.5,342.5 Z M 146.5,362.5 C 164.118,391.044 181.285,420.044 198,449.5C 202.131,461.451 198.631,470.284 187.5,476C 177.981,478.939 170.148,476.439 164,468.5C 147.753,439.67 131.253,411.003 114.5,382.5C 114.977,381.522 115.643,380.689 116.5,380C 126.727,374.392 136.727,368.559 146.5,362.5 Z"></path>
    </g>
    <g>
      <path  d="M 511.5,61.5 C 511.5,64.5 511.5,67.5 511.5,70.5C 510.404,72.1032 509.07,73.6032 507.5,75C 488.833,85.3333 470.167,95.6667 451.5,106C 442.589,109.213 437.255,106.213 435.5,97C 435.708,92.5834 437.708,89.2501 441.5,87C 459.5,77 477.5,67 495.5,57C 502.149,54.1725 507.482,55.6725 511.5,61.5 Z"></path>
    </g>
    <g>
      <path  d="M 447.5,149.5 C 463.448,152.57 479.114,156.737 494.5,162C 498.714,166.2 499.548,171.034 497,176.5C 492.909,180.305 488.076,181.472 482.5,180C 468.96,176.616 455.627,172.616 442.5,168C 438.5,162.667 438.5,157.333 442.5,152C 444.315,151.243 445.981,150.41 447.5,149.5 Z"></path>
    </g>
    <g>
      <path  d="M 128.5,302.5 C 139.032,302.199 143.199,307.199 141,317.5C 137.22,323.39 132.053,324.89 125.5,322C 121.741,318.257 120.574,313.757 122,308.5C 123.436,305.558 125.603,303.558 128.5,302.5 Z"></path>
    </g>
    <g>
      <path  d="M 94.5,322.5 C 105.164,322.99 108.997,328.323 106,338.5C 95.4466,347.443 83.4466,353.443 70,356.5C 58.3397,356.172 49.3397,351.172 43,341.5C 40.2686,334.693 42.102,329.527 48.5,326C 55.3291,324.495 60.3291,326.829 63.5,333C 65.4595,333.931 67.4595,334.764 69.5,335.5C 78.0519,331.392 86.3852,327.059 94.5,322.5 Z"></path>
    </g>
  </symbol>
  <symbol version="1.0" xmlns="http://www.w3.org/2000/svg" preserveAspectRatio="xMidYMid meet" viewBox="0 0 512.000000 512.000000" id="microphone" style="shape-rendering:geometricPrecision; text-rendering:geometricPrecision; image-rendering:optimizeQuality; fill-rule:evenodd; clip-rule:evenodd" >
    <g transform="translate(0.000000,512.000000) scale(0.100000,-0.100000)"  stroke="none">
      <path d="M2417 4944 c-161 -29 -302 -93 -432 -198 -163 -130 -273 -301 -332
-518 -17 -58 -18 -132 -18 -868 0 -736 1 -810 18 -868 59 -217 169 -388 332
-518 423 -339 1040 -263 1365 167 110 147 172 307 190 495 12 129 12 1319 0
1448 -19 190 -79 347 -190 495 -217 287 -579 429 -933 365z"></path>
      <path d="M895 2706 c-42 -18 -83 -69 -91 -113 -4 -20 -4 -84 0 -142 24 -407
187 -791 462 -1089 282 -306 664 -502 1086 -557 l47 -6 3 -269 c3 -253 4 -270
24 -296 39 -53 71 -69 134 -69 63 0 95 16 134 69 20 26 21 43 24 296 l3 268
82 12 c244 35 512 134 707 260 488 316 799 869 804 1427 1 132 -5 151 -68 197
-39 29 -133 29 -172 0 -59 -43 -67 -64 -76 -196 -26 -388 -162 -693 -423 -953
-207 -208 -437 -332 -733 -397 -140 -31 -424 -31 -564 0 -295 65 -527 190
-733 397 -262 261 -398 567 -423 953 -9 131 -17 153 -74 195 -33 25 -113 32
-153 13z"></path>
    </g>
  </symbol>
  <symbol xmlns="http://www.w3.org/2000/svg" version="1.1" xmlns:xlink="http://www.w3.org/1999/xlink" viewBox="0 0 512 512" id="money-transfer" style="shape-rendering:geometricPrecision; text-rendering:geometricPrecision; image-rendering:optimizeQuality; fill-rule:evenodd; clip-rule:evenodd" >
    <g>
      <path  d="M 144.5,15.5 C 219.558,15.0092 294.558,15.5092 369.5,17C 376.149,20.3141 380.649,25.4808 383,32.5C 383.5,58.8312 383.667,85.1646 383.5,111.5C 303.5,111.5 223.5,111.5 143.5,111.5C 143.5,178.167 143.5,244.833 143.5,311.5C 138.167,311.5 132.833,311.5 127.5,311.5C 127.333,218.499 127.5,125.499 128,32.5C 131.019,24.3156 136.519,18.649 144.5,15.5 Z M 215.5,55.5 C 242.169,55.3334 268.835,55.5 295.5,56C 302.347,57.8656 304.18,62.0323 301,68.5C 299.352,69.717 297.519,70.5503 295.5,71C 268.833,71.6667 242.167,71.6667 215.5,71C 208.653,69.1344 206.82,64.9677 210,58.5C 211.876,57.3913 213.709,56.3913 215.5,55.5 Z"></path>
    </g>
    <g>
      <path  d="M 405.5,101.5 C 407.927,101.523 410.26,102.023 412.5,103C 427.638,117.137 442.471,131.637 457,146.5C 460.333,152.5 460.333,158.5 457,164.5C 442.471,179.363 427.638,193.863 412.5,208C 407.714,210.262 403.547,209.428 400,205.5C 399.5,198.174 399.334,190.841 399.5,183.5C 373.498,183.667 347.498,183.5 321.5,183C 317,181.167 313.833,178 312,173.5C 311.333,161.5 311.333,149.5 312,137.5C 313.833,133 317,129.833 321.5,128C 347.498,127.5 373.498,127.333 399.5,127.5C 399.334,120.159 399.5,112.826 400,105.5C 401.5,103.531 403.333,102.198 405.5,101.5 Z"></path>
    </g>
    <g>
      <path  d="M 239.5,167.5 C 269.441,163.106 295.774,170.606 318.5,190C 344.322,220.416 350.488,254.582 337,292.5C 325.667,319.163 305.833,335.663 277.5,342C 253.457,346.453 230.457,343.453 208.5,333C 185.076,318.353 171.576,297.187 168,269.5C 164.092,238.563 172.592,211.729 193.5,189C 206.768,177.305 222.102,170.138 239.5,167.5 Z M 253.5,191.5 C 294.382,193.382 316.048,214.715 318.5,255.5C 316.333,295.334 295.333,316.667 255.5,319.5C 215.667,316.667 194.667,295.334 192.5,255.5C 194.509,216.495 214.842,195.162 253.5,191.5 Z M 252.5,219.5 C 256.555,219.176 260.555,219.509 264.5,220.5C 263.319,222.198 263.319,223.865 264.5,225.5C 267.51,226.269 270.51,227.103 273.5,228C 274.046,233.344 273.046,238.511 270.5,243.5C 265.104,240.827 259.437,239.994 253.5,241C 252.707,242.085 252.04,243.252 251.5,244.5C 257.96,246.539 264.294,249.039 270.5,252C 279.481,260.564 279.815,269.564 271.5,279C 268.112,281.361 264.446,283.194 260.5,284.5C 259.526,286.743 259.192,289.076 259.5,291.5C 255.486,291.666 251.486,291.499 247.5,291C 248.167,289.333 248.833,287.667 249.5,286C 245.275,284.524 240.942,283.19 236.5,282C 235.484,281.481 234.818,280.647 234.5,279.5C 235.541,275.543 236.874,271.71 238.5,268C 242.215,268.71 246.048,269.21 250,269.5C 251.833,269.333 253.667,269.167 255.5,269C 257.658,267.688 257.991,266.022 256.5,264C 238.709,260.244 233.209,250.077 240,233.5C 243.116,230.024 246.949,227.69 251.5,226.5C 252.474,224.257 252.808,221.924 252.5,219.5 Z"></path>
    </g>
    <g>
      <path  d="M 367.5,199.5 C 372.833,199.5 378.167,199.5 383.5,199.5C 383.667,292.501 383.5,385.501 383,478.5C 380.167,486.667 374.667,492.167 366.5,495C 291.443,495.991 216.443,495.657 141.5,494C 134.851,490.686 130.351,485.519 128,478.5C 127.5,452.169 127.333,425.835 127.5,399.5C 207.5,399.5 287.5,399.5 367.5,399.5C 367.5,332.833 367.5,266.167 367.5,199.5 Z M 248.5,424.5 C 272.154,423.319 281.654,434.319 277,457.5C 269.757,469.807 259.257,473.64 245.5,469C 233.193,461.757 229.36,451.257 234,437.5C 237.162,431.164 241.996,426.831 248.5,424.5 Z"></path>
    </g>
    <g>
      <path  d="M 243.5,207.5 C 286.099,204.266 305.933,223.933 303,266.5C 299.292,284.45 288.792,296.283 271.5,302C 262.228,303.553 252.895,303.886 243.5,303C 225.545,299.046 214.045,288.212 209,270.5C 203.433,248.207 209.267,229.707 226.5,215C 231.872,211.607 237.538,209.107 243.5,207.5 Z M 252.5,219.5 C 252.808,221.924 252.474,224.257 251.5,226.5C 246.949,227.69 243.116,230.024 240,233.5C 233.209,250.077 238.709,260.244 256.5,264C 257.991,266.022 257.658,267.688 255.5,269C 253.667,269.167 251.833,269.333 250,269.5C 246.048,269.21 242.215,268.71 238.5,268C 236.874,271.71 235.541,275.543 234.5,279.5C 234.818,280.647 235.484,281.481 236.5,282C 240.942,283.19 245.275,284.524 249.5,286C 248.833,287.667 248.167,289.333 247.5,291C 251.486,291.499 255.486,291.666 259.5,291.5C 259.192,289.076 259.526,286.743 260.5,284.5C 264.446,283.194 268.112,281.361 271.5,279C 279.815,269.564 279.481,260.564 270.5,252C 264.294,249.039 257.96,246.539 251.5,244.5C 252.04,243.252 252.707,242.085 253.5,241C 259.437,239.994 265.104,240.827 270.5,243.5C 273.046,238.511 274.046,233.344 273.5,228C 270.51,227.103 267.51,226.269 264.5,225.5C 263.319,223.865 263.319,222.198 264.5,220.5C 260.555,219.509 256.555,219.176 252.5,219.5 Z"></path>
    </g>
    <g>
      <path  d="M 101.5,301.5 C 105.794,301.198 108.961,302.864 111,306.5C 111.5,313.492 111.666,320.492 111.5,327.5C 137.502,327.333 163.502,327.5 189.5,328C 194,329.833 197.167,333 199,337.5C 199.667,349.5 199.667,361.5 199,373.5C 197.167,378 194,381.167 189.5,383C 163.502,383.5 137.502,383.667 111.5,383.5C 111.932,391.279 111.432,398.946 110,406.5C 106.528,409.658 102.694,410.158 98.5,408C 83.362,393.863 68.5287,379.363 54,364.5C 50.6667,358.5 50.6667,352.5 54,346.5C 69.1482,330.511 84.9815,315.511 101.5,301.5 Z"></path>
    </g>
    <g>
      <path  d="M 251.5,439.5 C 262.86,438.71 266.193,443.543 261.5,454C 250.964,457.997 246.464,454.497 248,443.5C 248.69,441.65 249.856,440.316 251.5,439.5 Z"></path>
    </g>
  </symbol>
  <symbol xmlns="http://www.w3.org/2000/svg" version="1.1" xmlns:xlink="http://www.w3.org/1999/xlink" viewBox="0 0 512 512" id="newspaper" style="shape-rendering:geometricPrecision; text-rendering:geometricPrecision; image-rendering:optimizeQuality; fill-rule:evenodd; clip-rule:evenodd" >
    <g>
      <path  d="M 82.5,-0.5 C 223.833,-0.5 365.167,-0.5 506.5,-0.5C 508.167,1.16667 509.833,2.83333 511.5,4.5C 511.5,159.167 511.5,313.833 511.5,468.5C 505.504,491.163 491.17,505.496 468.5,511.5C 325.167,511.5 181.833,511.5 38.5,511.5C 58.5707,509.271 71.0707,498.271 76,478.5C 76.3333,321.167 76.6667,163.833 77,6.5C 77.9383,3.40247 79.7716,1.06914 82.5,-0.5 Z M 419.5,59.5 C 429.275,58.5236 438.608,60.0236 447.5,64C 451.169,67.9191 451.335,72.0858 448,76.5C 447.25,77.1258 446.416,77.6258 445.5,78C 439.502,76.4588 433.336,75.2922 427,74.5C 421.877,73.7343 417.877,75.401 415,79.5C 414.132,83.6717 415.632,86.8383 419.5,89C 430.388,92.6884 439.888,98.5218 448,106.5C 455.67,120.574 453.503,132.74 441.5,143C 426.63,149.733 412.297,148.733 398.5,140C 392.636,132.961 393.802,127.461 402,123.5C 406.178,125.007 410.011,127.174 413.5,130C 420.936,133.622 427.769,132.789 434,127.5C 435.652,122.154 434.152,117.987 429.5,115C 418.913,110.797 409.413,104.964 401,97.5C 392.464,77.5722 398.631,64.9055 419.5,59.5 Z M 138.5,60.5 C 142.514,60.3345 146.514,60.5012 150.5,61C 151.5,61.8333 152.5,62.6667 153.5,63.5C 161.534,77.7067 169.367,92.04 177,106.5C 177.333,92.5 177.667,78.5 178,64.5C 179.804,61.1829 182.637,59.8496 186.5,60.5C 189.861,60.1119 192.694,61.1119 195,63.5C 195.667,89.8333 195.667,116.167 195,142.5C 193.992,144.259 192.492,145.426 190.5,146C 185.243,147.426 180.743,146.259 177,142.5C 169.42,128.338 161.587,114.338 153.5,100.5C 152.667,114.822 152.167,129.155 152,143.5C 146.667,147.5 141.333,147.5 136,143.5C 135.333,116.833 135.333,90.1667 136,63.5C 137.045,62.6266 137.878,61.6266 138.5,60.5 Z M 217.5,60.5 C 233.837,60.3334 250.17,60.5001 266.5,61C 269.394,63.9087 270.227,67.4087 269,71.5C 268.5,73.3333 267.333,74.5 265.5,75C 254.172,75.4999 242.838,75.6665 231.5,75.5C 231.5,82.5 231.5,89.5 231.5,96.5C 238.175,96.3337 244.842,96.5004 251.5,97C 255.124,99.1613 256.291,102.328 255,106.5C 253.786,108.049 252.286,109.215 250.5,110C 244.175,110.5 237.842,110.666 231.5,110.5C 231.5,117.5 231.5,124.5 231.5,131.5C 243.171,131.333 254.838,131.5 266.5,132C 270.5,136.667 270.5,141.333 266.5,146C 250.5,146.667 234.5,146.667 218.5,146C 217.069,145.535 215.903,144.701 215,143.5C 214.333,116.833 214.333,90.1667 215,63.5C 215.698,62.3094 216.531,61.3094 217.5,60.5 Z M 284.5,60.5 C 287.187,60.3359 289.854,60.5026 292.5,61C 293.701,61.9025 294.535,63.0692 295,64.5C 300.862,84.6198 307.029,104.62 313.5,124.5C 317.134,111.632 320.3,98.6316 323,85.5C 327.793,78.3152 333.46,77.6485 340,83.5C 343.061,97.3157 346.561,110.982 350.5,124.5C 357.152,103.562 363.652,82.562 370,61.5C 377.24,58.8748 382.74,60.8748 386.5,67.5C 377.923,93.0647 369.256,118.565 360.5,144C 352.92,149.059 345.754,148.559 339,142.5C 336.793,132.466 334.46,122.466 332,112.5C 329.46,122.864 326.794,133.197 324,143.5C 317,148.833 310,148.833 303,143.5C 294.105,118.148 285.605,92.6475 277.5,67C 279.089,63.9064 281.422,61.7398 284.5,60.5 Z M 146.5,180.5 C 243.501,180.333 340.501,180.5 437.5,181C 448.074,183.302 452.241,189.802 450,200.5C 447.187,205.996 442.687,209.162 436.5,210C 340.167,210.667 243.833,210.667 147.5,210C 138.751,209.085 133.751,204.252 132.5,195.5C 133.807,187.197 138.474,182.197 146.5,180.5 Z M 145.5,240.5 C 243.167,240.333 340.834,240.5 438.5,241C 451.032,245.732 453.866,253.898 447,265.5C 445.065,267.102 442.899,268.269 440.5,269C 341.167,269.667 241.833,269.667 142.5,269C 132.941,263.593 130.774,256.093 136,246.5C 138.843,243.837 142.009,241.837 145.5,240.5 Z M 145.5,300.5 C 179.502,300.333 213.502,300.5 247.5,301C 258.51,305.187 261.677,312.687 257,323.5C 255.062,326.106 252.562,327.939 249.5,329C 214.167,329.667 178.833,329.667 143.5,329C 133.071,324.11 130.571,316.61 136,306.5C 138.855,303.773 142.022,301.773 145.5,300.5 Z M 302.5,300.5 C 347.835,300.333 393.168,300.5 438.5,301C 446.208,302.712 450.374,307.545 451,315.5C 451.667,355.5 451.667,395.5 451,435.5C 450.16,442.013 446.66,446.513 440.5,449C 394.167,449.667 347.833,449.667 301.5,449C 296,447.5 292.5,444 291,438.5C 290.333,396.5 290.333,354.5 291,312.5C 293.019,306.65 296.852,302.65 302.5,300.5 Z M 144.5,360.5 C 178.835,360.333 213.168,360.5 247.5,361C 258.51,365.187 261.677,372.687 257,383.5C 254.9,386.467 252.066,388.3 248.5,389C 213.5,389.667 178.5,389.667 143.5,389C 133.053,384.022 130.553,376.522 136,366.5C 138.322,363.605 141.155,361.605 144.5,360.5 Z M 144.5,420.5 C 179.168,420.333 213.835,420.5 248.5,421C 259.012,425.532 261.846,433.032 257,443.5C 254.9,446.467 252.066,448.3 248.5,449C 213.5,449.667 178.5,449.667 143.5,449C 133.053,444.022 130.553,436.522 136,426.5C 138.322,423.605 141.155,421.605 144.5,420.5 Z"></path>
    </g>
    <g>
      <path  d="M -0.5,464.5 C -0.5,383.167 -0.5,301.833 -0.5,220.5C 1.06914,217.772 3.40247,215.938 6.5,215C 20.1626,214.5 33.8293,214.333 47.5,214.5C 47.6667,297.167 47.5,379.834 47,462.5C 42.4362,477.706 32.2695,483.873 16.5,481C 7.98397,478.316 2.3173,472.816 -0.5,464.5 Z"></path>
    </g>
  </symbol>
  <symbol xmlns="http://www.w3.org/2000/svg" version="1.1" xmlns:xlink="http://www.w3.org/1999/xlink" viewBox="0 0 512 512" id="profile" style="shape-rendering:geometricPrecision; text-rendering:geometricPrecision; image-rendering:optimizeQuality; fill-rule:evenodd; clip-rule:evenodd" >
    <g>
      <path  d="M 138.5,84.5 C 175.014,82.1742 203.181,96.1742 223,126.5C 239.699,159.161 238.032,190.827 218,221.5C 189.985,254.464 155.485,263.631 114.5,249C 74.8135,228.462 58.3135,195.962 65,151.5C 75.4417,113.551 99.9417,91.2178 138.5,84.5 Z"></path>
    </g>
    <g>
      <path  d="M 330.5,84.5 C 367.014,82.1742 395.181,96.1742 415,126.5C 431.699,159.161 430.032,190.827 410,221.5C 381.985,254.464 347.485,263.631 306.5,249C 266.813,228.462 250.313,195.962 257,151.5C 267.442,113.551 291.942,91.2178 330.5,84.5 Z"></path>
    </g>
    <g>
      <path  d="M 126.5,276.5 C 141.17,276.333 155.837,276.5 170.5,277C 180.638,277.924 190.304,280.424 199.5,284.5C 164.832,319.984 148.332,362.651 150,412.5C 150.469,417.209 151.635,421.709 153.5,426C 114.5,426.667 75.5,426.667 36.5,426C 28.6667,423.5 23.5,418.333 21,410.5C 16.9184,360.674 35.4184,321.841 76.5,294C 92.1699,284.983 108.837,279.15 126.5,276.5 Z"></path>
    </g>
    <g>
      <path  d="M 306.5,276.5 C 329.502,276.333 352.502,276.5 375.5,277C 427.369,284.334 463.202,312.168 483,360.5C 488.938,376.671 491.271,393.338 490,410.5C 487.5,418.333 482.333,423.5 474.5,426C 385.5,426.667 296.5,426.667 207.5,426C 199.425,424.222 194.258,419.389 192,411.5C 190.49,359.678 211.657,320.178 255.5,293C 271.618,284.348 288.618,278.848 306.5,276.5 Z"></path>
    </g>
  </symbol>
  <symbol xmlns="http://www.w3.org/2000/svg" version="1.1" xmlns:xlink="http://www.w3.org/1999/xlink" viewBox="0 0 512 512" id="right-arrow" style="shape-rendering:geometricPrecision; text-rendering:geometricPrecision; image-rendering:optimizeQuality; fill-rule:evenodd; clip-rule:evenodd" >
    <g>
      <path  d="M 142.5,-0.5 C 147.5,-0.5 152.5,-0.5 157.5,-0.5C 162.065,1.4539 166.398,3.9539 170.5,7C 246.333,82.8333 322.167,158.667 398,234.5C 408.032,246.456 409.032,259.123 401,272.5C 322.833,350.667 244.667,428.833 166.5,507C 163.408,508.546 160.408,510.046 157.5,511.5C 152.5,511.5 147.5,511.5 142.5,511.5C 129.433,504.283 118.266,494.616 109,482.5C 102.832,471.329 103.165,460.329 110,449.5C 174.68,384.986 239.18,320.32 303.5,255.5C 238.486,190.32 173.653,124.986 109,59.5C 103.029,48.6818 103.363,38.0151 110,27.5C 117.833,19.6667 125.667,11.8333 133.5,4C 136.592,2.45406 139.592,0.95406 142.5,-0.5 Z"></path>
    </g>
  </symbol>
  <symbol xmlns="http://www.w3.org/2000/svg" version="1.1" xmlns:xlink="http://www.w3.org/1999/xlink" viewBox="0 0 512 512" id="rupee-symbol" style="shape-rendering:geometricPrecision; text-rendering:geometricPrecision; image-rendering:optimizeQuality; fill-rule:evenodd; clip-rule:evenodd" >
    <g>
      <path  d="M 233.5,15.5 C 318.934,10.6533 389.1,40.6533 444,105.5C 497.639,177.964 509.639,256.964 480,342.5C 450.386,414.394 398.553,462.227 324.5,486C 237.094,508.859 159.427,490.859 91.5,432C 29.9664,371.063 5.79977,297.563 19,211.5C 36.643,128.207 84.143,69.0403 161.5,34C 184.739,24.3577 208.739,18.191 233.5,15.5 Z M 186.5,134.5 C 231.227,134.016 275.894,134.516 320.5,136C 329.376,140.289 332.209,147.123 329,156.5C 326.778,160.388 323.612,163.221 319.5,165C 310.814,165.168 302.148,165.668 293.5,166.5C 297.32,172.472 300.32,178.805 302.5,185.5C 308.909,185.183 315.243,185.683 321.5,187C 332.623,195.204 333.29,204.204 323.5,214C 318.1,216.278 312.434,217.111 306.5,216.5C 303.109,246.792 287.442,267.959 259.5,280C 248.822,283.71 237.822,285.71 226.5,286C 247.333,308.167 268.167,330.333 289,352.5C 294.552,365.717 290.386,373.717 276.5,376.5C 273.302,376.378 270.302,375.545 267.5,374C 236.968,342.469 206.801,310.636 177,278.5C 171.939,267.676 174.772,259.842 185.5,255C 202.5,254.667 219.5,254.333 236.5,254C 258.158,250.509 271.158,238.009 275.5,216.5C 245.831,216.667 216.165,216.5 186.5,216C 179.444,213.771 175.444,208.937 174.5,201.5C 175.326,194.856 178.659,190.022 184.5,187C 212.444,185.858 240.444,185.025 268.5,184.5C 262.235,175.702 253.901,169.868 243.5,167C 224.204,165.744 204.871,165.077 185.5,165C 176.393,161.551 172.893,155.051 175,145.5C 177.437,140.226 181.271,136.56 186.5,134.5 Z"></path>
    </g>
  </symbol>
  <symbol version="1.0" xmlns="http://www.w3.org/2000/svg" preserveAspectRatio="xMidYMid meet" viewBox="0 0 512.000000 512.000000" id="search" style="shape-rendering:geometricPrecision; text-rendering:geometricPrecision; image-rendering:optimizeQuality; fill-rule:evenodd; clip-rule:evenodd" >
    <g transform="translate(0.000000,512.000000) scale(0.100000,-0.100000)"  stroke="none">
      <path d="M1940 5109 c-357 -37 -713 -177 -1020 -403 -114 -83 -323 -290 -407
-402 -264 -349 -405 -745 -420 -1179 -9 -259 23 -481 103 -723 100 -301 272
-578 500 -806 334 -334 756 -539 1227 -597 127 -15 451 -7 572 15 281 51 531
147 758 289 l87 56 614 -638 c337 -350 627 -649 644 -663 108 -90 294 -65 376
50 42 58 54 96 55 164 2 108 -5 117 -654 790 -324 336 -600 624 -612 639 l-23
27 54 68 c362 465 503 1076 385 1674 -59 299 -214 627 -412 873 -442 550
-1129 837 -1827 766z m410 -543 c649 -87 1163 -562 1300 -1202 28 -127 38
-382 20 -503 -49 -348 -196 -645 -436 -885 -231 -232 -518 -378 -844 -432
-109 -18 -349 -18 -466 0 -422 64 -804 309 -1039 666 -84 127 -129 220 -175
359 -51 151 -71 264 -77 434 -33 853 655 1569 1512 1576 55 0 147 -6 205 -13z"></path>
    </g>
  </symbol>
  <symbol xmlns="http://www.w3.org/2000/svg" version="1.1" xmlns:xlink="http://www.w3.org/1999/xlink" viewBox="0 0 512 512" id="smart-tv" style="shape-rendering:geometricPrecision; text-rendering:geometricPrecision; image-rendering:optimizeQuality; fill-rule:evenodd; clip-rule:evenodd" >
    <g>
      <path  d="M 511.5,69.5 C 511.5,179.5 511.5,289.5 511.5,399.5C 509.243,401.923 506.576,403.757 503.5,405C 442.168,405.5 380.834,405.667 319.5,405.5C 318.889,413.278 319.556,420.778 321.5,428C 355.659,434.365 389.659,441.365 423.5,449C 429.062,455.62 428.728,461.953 422.5,468C 420.419,468.869 418.253,469.369 416,469.5C 379.81,462.462 343.643,455.295 307.5,448C 277.833,447.333 248.167,447.333 218.5,448C 210.471,448.335 202.471,449.002 194.5,450C 162.788,456.076 131.122,462.409 99.5,469C 88.1722,470.004 83.3388,464.837 85,453.5C 85.7845,451.714 86.9512,450.214 88.5,449C 121.977,441.238 155.644,434.238 189.5,428C 191.444,420.778 192.111,413.278 191.5,405.5C 130.166,405.667 68.8324,405.5 7.5,405C 4.42408,403.757 1.75741,401.923 -0.5,399.5C -0.5,289.5 -0.5,179.5 -0.5,69.5C 0.977392,67.193 2.97739,65.3597 5.5,64C 172.167,63.3333 338.833,63.3333 505.5,64C 508.023,65.3597 510.023,67.193 511.5,69.5 Z M 21.5,85.5 C 177.5,85.5 333.5,85.5 489.5,85.5C 489.5,170.5 489.5,255.5 489.5,340.5C 333.5,340.5 177.5,340.5 21.5,340.5C 21.5,255.5 21.5,170.5 21.5,85.5 Z M 21.5,362.5 C 28.1667,362.5 34.8333,362.5 41.5,362.5C 41.5,369.5 41.5,376.5 41.5,383.5C 34.8333,383.5 28.1667,383.5 21.5,383.5C 21.5,376.5 21.5,369.5 21.5,362.5 Z M 63.5,362.5 C 205.5,362.5 347.5,362.5 489.5,362.5C 489.5,369.5 489.5,376.5 489.5,383.5C 347.5,383.5 205.5,383.5 63.5,383.5C 63.5,376.5 63.5,369.5 63.5,362.5 Z M 213.5,405.5 C 241.5,405.5 269.5,405.5 297.5,405.5C 297.5,412.167 297.5,418.833 297.5,425.5C 269.5,425.5 241.5,425.5 213.5,425.5C 213.5,418.833 213.5,412.167 213.5,405.5 Z"></path>
    </g>
    <g>
      <path  d="M 245.5,180.5 C 273.613,177.814 297.78,186.147 318,205.5C 321.163,216.699 316.997,222.199 305.5,222C 300.637,219.81 296.304,216.81 292.5,213C 272.179,200.715 251.179,199.382 229.5,209C 221.247,213.927 213.58,219.594 206.5,226C 194.285,226.787 189.785,221.287 193,209.5C 207.095,193.702 224.595,184.035 245.5,180.5 Z"></path>
    </g>
    <g>
      <path  d="M 248.5,223.5 C 260.276,221.927 271.276,224.094 281.5,230C 289.371,234.146 291.537,240.312 288,248.5C 285.695,251.771 282.528,253.437 278.5,253.5C 273.63,252.398 269.297,250.232 265.5,247C 260.167,245 254.833,245 249.5,247C 245.5,249.667 241.5,252.333 237.5,255C 229.023,256.853 224.023,253.52 222.5,245C 224.17,237.987 228.17,232.653 234.5,229C 239.159,226.842 243.825,225.009 248.5,223.5 Z"></path>
    </g>
    <g>
      <path  d="M 254.5,265.5 C 265.856,265.34 270.356,270.674 268,281.5C 264.723,287.109 259.89,288.942 253.5,287C 247.102,283.473 245.269,278.307 248,271.5C 249.494,268.686 251.66,266.686 254.5,265.5 Z"></path>
    </g>
  </symbol>
  <symbol xmlns="http://www.w3.org/2000/svg" version="1.1" xmlns:xlink="http://www.w3.org/1999/xlink" viewBox="0 0 512 512" id="water-bill" style="shape-rendering:geometricPrecision; text-rendering:geometricPrecision; image-rendering:optimizeQuality; fill-rule:evenodd; clip-rule:evenodd" >
    <g>
      <path  d="M 249.5,-0.5 C 253.5,-0.5 257.5,-0.5 261.5,-0.5C 264.431,1.24806 267.264,3.24806 270,5.5C 296.333,44.8333 322.667,84.1667 349,123.5C 374.546,162.577 397.546,203.243 418,245.5C 453.529,319.298 445.196,387.632 393,450.5C 360.819,485.007 321.319,505.341 274.5,511.5C 261.833,511.5 249.167,511.5 236.5,511.5C 178.377,503.703 132.877,475.703 100,427.5C 68.6756,377.901 63.0089,325.567 83,270.5C 91.298,248.902 100.965,227.902 112,207.5C 128.578,178.003 145.912,149.003 164,120.5C 189.667,82.1667 215.333,43.8333 241,5.5C 243.736,3.24806 246.569,1.24806 249.5,-0.5 Z M 254.5,51.5 C 294.168,106.401 331.002,163.401 365,222.5C 379.967,248.433 391.634,275.766 400,304.5C 407.629,357.611 391.796,402.445 352.5,439C 308.499,474.339 259.499,483.339 205.5,466C 154.754,446.588 123.254,410.421 111,357.5C 105.739,333.7 107.406,310.366 116,287.5C 123.235,268.361 131.569,249.694 141,231.5C 152.081,211.67 163.414,192.003 175,172.5C 201.356,131.996 227.856,91.6626 254.5,51.5 Z"></path>
    </g>
    <g>
      <path  d="M 356.5,314.5 C 367.985,312.488 375.818,316.821 380,327.5C 380.186,366.954 365.353,399.454 335.5,425C 327.734,431.799 318.901,436.633 309,439.5C 294.062,436.945 288.062,428.279 291,413.5C 292.738,409.759 295.238,406.592 298.5,404C 318.578,392.368 332.412,375.535 340,353.5C 342.29,343.546 344.29,333.546 346,323.5C 348.468,319.199 351.968,316.199 356.5,314.5 Z"></path>
    </g>
  </symbol>
</svg>